<?xml version="1.0" encoding="UTF-8" standalone="no"?>
<!-- Created with Inkscape (http://www.inkscape.org/) -->

<svg
   width="249.99998"
   height="250.00002"
   viewBox="0 0 66.145828 66.145837"
   version="1.1"
   id="svg5"
   xml:space="preserve"
   inkscape:version="1.2.1 (9c6d41e410, 2022-07-14)"
   sodipodi:docname="icon"
   inkscape:export-filename="icon_small.svg"
   inkscape:export-xdpi="12.349594"
   inkscape:export-ydpi="12.349594"
   xmlns:inkscape="http://www.inkscape.org/namespaces/inkscape"
   xmlns:sodipodi="http://sodipodi.sourceforge.net/DTD/sodipodi-0.dtd"
   xmlns="http://www.w3.org/2000/svg"
   xmlns:svg="http://www.w3.org/2000/svg"><sodipodi:namedview
     id="namedview7"
     pagecolor="#ffffff"
     bordercolor="#666666"
     borderopacity="1.0"
     inkscape:showpageshadow="2"
     inkscape:pageopacity="0.0"
     inkscape:pagecheckerboard="0"
     inkscape:deskcolor="#d1d1d1"
     inkscape:document-units="mm"
     showgrid="false"
     inkscape:zoom="2.7865881"
     inkscape:cx="45.216586"
     inkscape:cy="130.62569"
     inkscape:window-width="1920"
     inkscape:window-height="1011"
     inkscape:window-x="0"
     inkscape:window-y="0"
     inkscape:window-maximized="1"
     inkscape:current-layer="layer1" /><defs
     id="defs2" /><g
     inkscape:label="Ebene 1"
     inkscape:groupmode="layer"
     id="layer1"><path
       id="path4176-6"
       style="fill:#ffcc00;fill-opacity:0.221913;stroke:none;stroke-width:0.421406"
       d="m 48.867772,53.332194 c -5.371336,3.101144 -11.989096,3.101144 -17.360431,0 l 5.708745,-9.887839 c 1.838751,1.061606 4.104189,1.061606 5.942935,0 z m 0,-30.069146 c 5.371334,3.10114 8.680215,8.832288 8.680215,15.034573 H 46.130494 c 0,-2.123208 -1.132718,-4.085132 -2.971468,-5.146734 z m -4.742665,15.034573 c 0,2.17465 -1.762901,3.937551 -3.937551,3.937551 -2.17465,0 -3.937551,-1.762901 -3.937551,-3.937551 0,-2.17465 1.762901,-3.937551 3.937551,-3.937551 2.17465,0 3.937551,1.762901 3.937551,3.937551 z m -21.297982,0 c 0,-6.202285 3.308881,-11.933433 8.680216,-15.034573 l 5.708745,9.887839 c -1.83875,1.061602 -2.971468,3.023526 -2.971468,5.146734 z M 40.187556,17.12247 c -11.694715,0 -21.175151,9.480436 -21.175151,21.175151 0,11.694715 9.480436,21.175151 21.175151,21.175151 11.694715,0 21.175151,-9.480436 21.175151,-21.175151 0,-11.694715 -9.480436,-21.175151 -21.175151,-21.175151 z"
       inkscape:connector-curvature="0"
       sodipodi:nodetypes="ccccccccccssssscccccsssss" /><text
       xml:space="preserve"
       style="font-style:normal;font-variant:normal;font-weight:normal;font-stretch:normal;font-size:53.6147px;line-height:1.25;font-family:EmojiOne;-inkscape-font-specification:EmojiOne;letter-spacing:0px;word-spacing:0px;fill:#000000;fill-opacity:0.22;stroke:none;stroke-width:1.34037"
       x="4.3773036"
       y="47.376991"
       id="text113-7"><tspan
         sodipodi:role="line"
         id="tspan111-5"
         style="fill:#000000;fill-opacity:0.22;stroke-width:1.34037"
         x="4.3773036"
         y="47.376991">G</tspan></text><path
       id="path4176"
       style="fill:#ffcc00;stroke:none;stroke-width:0.421406"
       d="m 49.285658,51.744693 c -5.371336,3.101144 -11.989096,3.101144 -17.360431,0 l 5.708745,-9.887839 c 1.838751,1.061606 4.104189,1.061606 5.942935,0 z m 0,-30.069146 c 5.371334,3.10114 8.680215,8.832288 8.680215,15.034573 H 46.54838 c 0,-2.123208 -1.132718,-4.085132 -2.971468,-5.146734 z M 44.542993,36.71012 c 0,2.17465 -1.762901,3.937551 -3.937551,3.937551 -2.17465,0 -3.937551,-1.762901 -3.937551,-3.937551 0,-2.17465 1.762901,-3.937551 3.937551,-3.937551 2.17465,0 3.937551,1.762901 3.937551,3.937551 z m -21.297982,0 c 0,-6.202285 3.308881,-11.933433 8.680216,-15.034573 l 5.708745,9.887839 c -1.83875,1.061602 -2.971468,3.023526 -2.971468,5.146734 z M 40.605442,15.534969 c -11.694715,0 -21.175151,9.480436 -21.175151,21.175151 0,11.694715 9.480436,21.175151 21.175151,21.175151 11.694715,0 21.175151,-9.480436 21.175151,-21.175151 0,-11.694715 -9.480436,-21.175151 -21.175151,-21.175151 z"
       inkscape:connector-curvature="0"
       sodipodi:nodetypes="ccccccccccssssscccccsssss" /><text
       xml:space="preserve"
       style="font-style:normal;font-variant:normal;font-weight:normal;font-stretch:normal;font-size:53.6147px;line-height:1.25;font-family:EmojiOne;-inkscape-font-specification:EmojiOne;letter-spacing:0px;word-spacing:0px;fill:#000000;fill-opacity:1;stroke:none;stroke-width:1.34037"
       x="4.7951913"
       y="45.78949"
       id="text113"><tspan
         sodipodi:role="line"
         id="tspan111"
         style="stroke-width:1.34037"
         x="4.7951913"
         y="45.78949">G</tspan></text></g></svg>
